<?xml version="1.0" standalone="no"?>
<!DOCTYPE svg PUBLIC "-//W3C//DTD SVG 20010904//EN"
 "http://www.w3.org/TR/2001/REC-SVG-20010904/DTD/svg10.dtd">
<svg version="1.0" xmlns="http://www.w3.org/2000/svg"
 width="512.000000pt" height="512.000000pt" viewBox="0 0 512.000000 512.000000"
 preserveAspectRatio="xMidYMid meet">

<g transform="translate(0.000000,512.000000) scale(0.100000,-0.100000)"
fill="#000000" stroke="none">
<path d="M405 4642 c-65 -22 -109 -55 -146 -105 -62 -86 -59 15 -59 -1759 l0
-1618 -60 0 c-34 0 -74 -7 -89 -15 -47 -24 -53 -54 -49 -266 3 -172 5 -199 24
-240 31 -66 78 -114 142 -146 l57 -28 2335 0 2335 0 57 28 c64 32 111 80 142
146 19 41 21 68 24 240 4 212 -2 242 -49 266 -15 8 -55 15 -88 15 l-61 0 -2
1638 -3 1637 -28 57 c-32 64 -80 111 -146 142 l-46 21 -2120 2 c-1992 2 -2123
1 -2170 -15z m4260 -194 c58 -26 55 56 55 -1478 l0 -1410 -2160 0 -2160 0 0
1413 c1 1517 -2 1444 51 1473 34 19 4174 21 4214 2z m55 -3188 l0 -100 -790 0
c-877 0 -837 3 -861 -65 l-13 -35 -496 0 -496 0 -13 35 c-24 68 16 65 -861 65
l-790 0 0 100 0 100 2160 0 2160 0 0 -100z m-2801 -339 c22 -22 57 -44 78 -50
52 -15 1074 -15 1126 0 21 6 56 28 78 50 l39 39 840 0 840 0 0 -110 c0 -123
-11 -158 -55 -178 -20 -9 -560 -12 -2306 -12 -2481 0 -2320 -4 -2347 55 -7 15
-12 72 -12 135 l0 110 840 0 840 0 39 -39z"/>
<path d="M1063 3892 c-100 -35 -171 -115 -193 -216 -8 -35 -10 -250 -8 -696 3
-631 3 -646 24 -691 31 -66 78 -114 142 -146 l57 -28 1345 -3 1345 -2 39 -111
c49 -141 72 -169 133 -169 42 0 50 4 119 72 l74 72 99 -97 c91 -90 101 -97
138 -97 67 0 114 62 93 124 -5 17 -50 71 -100 121 l-89 89 69 71 c78 81 90
111 67 161 -17 35 -46 54 -114 74 l-42 13 -3 626 c-3 612 -3 627 -24 672 -31
66 -78 114 -142 146 l-57 28 -1460 2 c-1381 2 -1463 2 -1512 -15z m2946 -196
c15 -8 32 -26 39 -41 9 -19 12 -173 12 -587 0 -529 -1 -560 -17 -553 -133 53
-293 105 -323 105 -30 0 -44 -6 -64 -31 -34 -40 -33 -69 9 -184 l34 -95 -1280
0 c-1391 0 -1321 -3 -1347 55 -18 40 -16 1261 2 1294 29 53 -45 50 1484 51
1213 0 1427 -2 1451 -14z m17 -1387 c63 -23 114 -45 114 -48 0 -9 -149 -156
-153 -150 -2 2 -20 51 -42 109 -21 58 -40 111 -42 118 -7 18 -2 16 123 -29z"/>
<path d="M1611 3497 c-50 -29 -50 -33 -51 -485 0 -464 0 -467 59 -492 20 -8
76 -11 178 -8 144 3 149 4 203 34 147 83 201 267 121 409 l-31 55 31 55 c81
143 25 329 -122 410 -53 29 -58 30 -209 33 -117 2 -161 -1 -179 -11z m298
-201 c66 -35 66 -137 0 -172 -16 -8 -55 -14 -89 -14 l-60 0 0 100 0 100 60 0
c34 0 73 -6 89 -14z m0 -400 c66 -35 66 -137 0 -172 -16 -8 -55 -14 -89 -14
l-60 0 0 100 0 100 60 0 c34 0 73 -6 89 -14z"/>
<path d="M2361 3496 c-50 -28 -50 -32 -51 -483 0 -307 3 -429 12 -448 22 -49
50 -55 263 -55 213 0 241 6 263 55 23 51 7 107 -39 131 -20 10 -66 14 -164 14
l-135 0 0 100 0 100 60 0 c71 0 107 15 126 51 27 52 8 115 -41 137 -14 7 -53
12 -85 12 l-60 0 0 100 0 100 135 0 c149 0 182 9 203 55 23 51 7 107 -39 131
-39 19 -412 20 -448 0z"/>
<path d="M3061 3496 c-47 -26 -63 -84 -37 -135 18 -34 54 -51 111 -51 l44 0 3
-364 c3 -352 4 -366 24 -393 41 -54 124 -53 161 4 16 25 18 60 21 390 l3 363
45 0 c55 0 96 20 112 55 23 51 7 107 -39 131 -39 19 -412 20 -448 0z"/>
</g>
</svg>
